<!DOCTYPE svg PUBLIC "-//W3C//DTD SVG 20010904//EN" "http://www.w3.org/TR/2001/REC-SVG-20010904/DTD/svg10.dtd">
<svg version="1.0" xmlns="http://www.w3.org/2000/svg" width="500px" height="500px" viewBox="0 0 5000 5000" preserveAspectRatio="xMidYMid meet">
<g id="layer101" fill="#020201" stroke="none">
 <path d="M0 2500 l0 -2500 2500 0 2500 0 0 2500 0 2500 -2500 0 -2500 0 0 -2500z"/>
 </g>
<g id="layer102" fill="#d1af94" stroke="none">
 <path d="M0 2500 l0 -2500 2500 0 2500 0 0 2500 0 2500 -2500 0 -2500 0 0 -2500z m2884 1700 l229 0 167 -160 167 -160 199 -2 199 -3 3 -199 2 -199 160 -168 160 -167 0 -228 0 -229 145 -145 145 -145 -145 -145 -145 -145 0 -228 0 -229 -157 -164 -158 -165 -5 -202 -5 -202 -199 -3 -199 -2 -167 -160 -167 -160 -229 0 -229 0 -145 -145 -145 -145 -145 145 -145 145 -229 0 -229 0 -167 160 -167 160 -199 2 -199 3 -3 200 -3 200 -159 165 -159 165 -1 230 0 230 -145 145 -145 145 145 145 145 145 0 230 0 230 160 166 160 167 2 198 3 199 199 3 199 2 167 160 167 160 229 0 229 0 145 145 145 145 145 -145 145 -145 229 0z"/>
 <path d="M2270 4065 l-95 -95 -235 0 -235 0 -165 -165 -165 -165 -127 0 -128 0 0 -127 0 -128 -165 -172 -165 -171 0 -229 0 -228 -95 -95 -95 -95 95 -95 95 -95 0 -229 0 -229 165 -172 165 -173 0 -126 0 -126 128 0 127 0 165 -165 165 -165 235 0 235 0 95 -95 95 -95 95 95 95 95 236 0 235 0 164 165 164 165 128 0 128 0 0 132 0 132 165 166 165 166 0 230 0 229 95 95 95 95 -95 95 -95 95 0 230 0 229 -165 166 -165 166 0 132 0 132 -128 0 -127 0 -165 165 -165 165 -235 0 -235 0 -95 95 -95 95 -95 -95z m145 -45 l49 -50 -99 0 -99 0 49 50 c27 28 50 50 50 50 0 0 23 -22 50 -50z m-352 -160 l-52 -50 -117 0 -118 0 -87 -85 -86 -85 -64 0 -64 0 135 135 135 135 185 0 185 0 -52 -50z m504 8 c24 -23 43 -46 43 -50 0 -4 -110 -8 -245 -8 -135 0 -245 3 -245 7 0 4 19 27 42 50 l42 43 160 0 160 0 43 -42z m553 -93 l135 -135 -64 0 -64 0 -86 85 -87 85 -118 0 -117 0 -52 50 -52 50 185 0 185 0 135 -135z m-1220 -80 l-54 -55 -75 0 -75 0 54 55 54 55 75 0 75 0 -54 -55z m840 0 l54 -55 -429 0 -429 0 54 55 54 55 321 0 321 0 54 -55z m240 0 l54 -55 -75 0 -75 0 -54 55 -54 55 75 0 75 0 54 -55z m-1670 -118 c0 -1 -29 -32 -65 -67 l-65 -64 0 67 0 67 65 0 c36 0 65 -1 65 -3z m220 -4 c0 -10 -333 -343 -342 -343 -5 0 -8 26 -8 57 l0 58 117 117 118 118 57 0 c32 0 58 -3 58 -7z m-45 -293 l-300 -300 -3 72 -3 72 228 228 228 228 75 0 75 0 -300 -300z m1717 -47 l348 -348 0 -490 0 -490 -347 -347 -348 -348 -490 0 -490 0 -347 347 -348 348 0 490 0 490 347 347 348 348 490 0 490 0 347 -347z m121 119 l228 -228 -3 -72 -3 -72 -300 300 -300 300 75 0 75 0 228 -228z m110 110 l118 -118 -3 -58 -3 -58 -172 167 c-95 92 -173 171 -173 176 0 5 26 9 58 9 l57 0 118 -118z m117 53 c0 -36 -4 -65 -8 -65 -10 0 -122 113 -122 123 0 4 29 7 65 7 l65 0 0 -65z m-2519 -440 l-91 -92 0 -125 0 -124 -45 -44 -45 -44 0 184 0 185 133 133 132 132 3 -56 3 -57 -90 -92z m2849 -244 l0 -185 -45 44 -45 44 0 124 0 125 -90 91 -90 92 0 59 0 60 135 -135 135 -135 0 -184z m-2815 30 l-55 -56 0 75 0 74 53 54 52 53 3 -73 3 -72 -56 -55z m2655 20 l0 -75 -55 54 -55 54 0 75 0 75 55 -54 55 -54 0 -75z m-2600 -488 l0 -427 -55 54 -55 54 0 320 0 320 52 53 c29 29 54 53 55 53 2 0 3 -192 3 -427z m2600 2 l0 -321 -55 -54 -55 -54 0 429 0 429 55 -54 55 -54 0 -321z m-2780 -2 l0 -248 -45 47 -45 47 0 156 0 155 41 45 c23 25 43 45 45 45 2 0 4 -111 4 -247z m2940 2 l0 -161 -45 -44 -45 -44 0 249 0 249 45 -44 45 -44 0 -161z m-3090 -2 l0 -97 -45 44 c-25 24 -45 49 -45 54 0 9 79 96 87 96 2 0 3 -44 3 -97z m3240 2 c0 -6 -20 -31 -45 -55 l-45 -44 0 99 0 99 45 -44 c25 -24 45 -49 45 -55z m-3090 -460 l0 -120 90 -90 90 -90 0 -65 0 -65 -135 135 -135 135 0 184 0 185 45 -44 45 -44 0 -121z m2805 -295 l-135 -135 0 65 0 65 90 90 90 90 0 119 0 120 43 44 42 43 3 -183 2 -182 -135 -136z m-2625 161 l0 -75 -55 54 -55 54 0 75 0 75 55 -54 55 -54 0 -75z m2545 -20 l-55 -56 0 75 0 74 53 54 52 53 3 -73 3 -72 -56 -55z m-1957 -569 l-72 -3 -228 228 -228 228 0 75 0 75 300 -300 300 -300 -72 -3z m1615 226 l-228 -228 -75 0 -75 0 300 300 300 300 3 -72 3 -72 -228 -228z m-1845 -226 l-62 -3 -118 118 -118 118 0 65 0 65 180 -180 180 -180 -62 -3z m2072 291 l0 -58 -117 -117 -118 -118 -57 0 c-32 0 -58 3 -58 7 0 10 333 343 342 343 5 0 8 -26 8 -57z m-2300 -228 l64 -65 -67 0 -67 0 0 65 c0 36 1 65 3 65 1 0 32 -29 67 -65z m2300 0 l0 -65 -65 0 c-36 0 -65 3 -65 7 0 10 112 123 122 123 4 0 8 -29 8 -65z m-1860 -210 l85 -85 118 0 118 0 52 -50 52 -50 -185 0 -185 0 -135 135 -135 135 65 0 65 0 85 -85z m210 30 l54 -55 -75 0 -75 0 -54 55 -54 55 75 0 75 0 54 -55z m840 0 l-54 -55 -321 0 -321 0 -54 55 -54 55 429 0 429 0 -54 -55z m240 0 l-54 -55 -75 0 -75 0 54 55 54 55 75 0 75 0 -54 -55z m140 -80 l-135 -135 -185 0 -185 0 52 50 52 50 117 0 118 0 87 85 86 85 64 0 64 0 -135 -135z m-510 -43 c0 -4 -19 -27 -43 -50 l-43 -42 -159 0 -159 0 -43 42 c-24 23 -43 46 -43 50 0 4 110 8 245 8 135 0 245 -4 245 -8z m-150 -155 c0 -1 -22 -24 -48 -50 l-48 -47 -49 50 -49 50 97 0 c53 0 97 -1 97 -3z"/>
 <path d="M2336 2869 c-114 -28 -246 -141 -305 -261 -126 -257 -32 -569 211 -698 53 -29 76 -35 145 -38 95 -5 162 9 217 44 l38 26 37 -36 c21 -20 40 -33 44 -30 10 10 9 264 0 264 -5 0 -19 -25 -31 -54 -63 -145 -201 -220 -343 -186 -41 10 -64 24 -100 60 -72 72 -90 140 -96 357 -7 210 6 313 48 400 47 98 119 139 228 131 110 -8 195 -76 266 -211 22 -42 43 -77 48 -77 4 0 7 68 7 150 0 83 -4 150 -9 150 -5 0 -28 -21 -51 -46 l-42 -46 -32 31 c-63 61 -190 93 -280 70z"/>
 </g>
<g id="layer103" fill="#ffffff" stroke="none">
 <path d="M0 2500 l0 -2500 2500 0 2500 0 0 2500 0 2500 -2500 0 -2500 0 0 -2500z m2880 1710 l235 0 165 -165 165 -165 202 0 203 0 0 -203 0 -202 165 -165 165 -165 0 -235 0 -235 140 -140 140 -140 -140 -140 -140 -140 0 -235 0 -235 -165 -165 -165 -165 0 -202 0 -203 -203 0 -202 0 -165 -165 -165 -165 -235 0 -235 0 -140 -140 -140 -140 -140 140 -140 140 -235 0 -235 0 -165 165 -165 165 -202 0 -203 0 0 203 0 202 -165 165 -165 165 0 235 0 235 -140 140 -140 140 140 140 140 140 0 235 0 235 165 165 165 165 0 202 0 203 203 0 202 0 165 165 165 165 235 0 235 0 140 140 140 140 140 -140 140 -140 235 0z"/>
 </g>

</svg>